# xmcd
#
# Track frame offsets:
#	150
#	17024
#	38177
#	66547
#
# Disc length: 1557 seconds
#
# Revision: 1
# Processed by: cddbd v1.5.2PL0 Copyright (c) Steve Scherf et al.
# Submitted via: audiograbber 1.83.01
#
DISCID=31061304
DTITLE=Jage - T‰‰lt Puskee [CDS)
DYEAR=2005
DGENRE=Hip-Hop
TTITLE0=T‰‰lt Puskee
TTITLE1=Mun T‰ytyy
TTITLE2=T‰‰lt Puskee (Instrumentaali)
TTITLE3=Mun T‰ytyy - Video
EXTD=TR.
EXTT0=
EXTT1=
EXTT2=
EXTT3=
PLAYORDER=
